# xmcd
#
# Track frame offsets:
#	150
#	12815
#	22415
#	39025
#	50230
#	61019
#	72289
#	83345
#	99229
#	110854
#	122864
#	142414
#	155093
#	167370
#	182042
#	193396
#	205869
#	220382
#	232419
#	244459
#	257223
#	268793
#	278514
#	292264
#
# Disc length: 4109 seconds
#
# Revision: 1
# Processed by: cddbd v1.5.2PL0 Copyright (c) Steve Scherf et al.
# Submitted via: audiograbber 1.83.01
#
DISCID=7c100b18
DTITLE=Wiseman, Mac - Sings 12 Great Hits - Sings Best Loved Gospel Hymns
DYEAR=2013
DGENRE=Folk - Gospel
TTITLE0=Tom Dooley
TTITLE1=He's Got The Whole World In His Hands
TTITLE2=Old Shep
TTITLE3=Sixteen Tons
TTITLE4=I'm Moving On
TTITLE5=The Fool
TTITLE6=The Ballad Of Davy Crockett
TTITLE7=Darling Nelly Gray
TTITLE8=The Old Lamplighter
TTITLE9=Running Bear
TTITLE10=El Paso
TTITLE11=The Three Bells
TTITLE12=Peace in the Valley
TTITLE13=Let The Lower Lights Be Burning
TTITLE14=I Heard My Mother Call My Name In Prayer
TTITLE15=Bringing In The Sheaves
TTITLE16=Where Is My Boy Tonight
TTITLE17=The Beautiful Garden Of Prayer
TTITLE18=Beautiful Isle Of Somewhere
TTITLE19=In The Sweet Bye And Bye
TTITLE20=If I Could Hear My Mother Pray Again
TTITLE21=Shall We Gather At The River
TTITLE22=Lord I'm Coming Home
TTITLE23=Tell Mother I'll Be There
EXTD=2 Stereo LPs\nSiings 12 Great Hits - 1960 (1 - 12]\nSings Best Loved Gospe
EXTD=l Hymns - 1961 (13 - 24)
EXTT0=
EXTT1=
EXTT2=
EXTT3=
EXTT4=
EXTT5=
EXTT6=
EXTT7=
EXTT8=
EXTT9=
EXTT10=
EXTT11=
EXTT12=
EXTT13=
EXTT14=
EXTT15=
EXTT16=
EXTT17=
EXTT18=
EXTT19=
EXTT20=
EXTT21=
EXTT22=
EXTT23=
PLAYORDER=
